# xmcd
#
# Track frame offsets:
# 150
# 20664
# 39600
# 52253
# 76057
# 90397
# 106557
# 137525
#
# Disc length: 2103 seconds
#
#
# Revision: 0
# Processed by: cddbd v1.5PL3 Copyright (c) Steve Scherf et al.
# Submitted via: FreeRIP 2.60 
#
DISCID=58083508
DTITLE=Jeff Liberty - The Tax Of Bein' Free
DYEAR=2003
DGENRE=Blues
TTITLE0=Jump On In
TTITLE1=Dry Spell
TTITLE2=The Tax Of Bein' Free
TTITLE3=Lightnin' Man
TTITLE4=All My Might
TTITLE5=Broad St. Shorty's Breakfast Cafe
TTITLE6=The Light Of Love
TTITLE7=Tell Me Why
EXTD=Bluesfestradio.com
EXTT0=
EXTT1=
EXTT2=
EXTT3=
EXTT4=
EXTT5=
EXTT6=
EXTT7=
PLAYORDER=
